<?xml version="1.0" encoding="UTF-8"?>
<svg id="Layer_2" data-name="Layer 2" xmlns="http://www.w3.org/2000/svg" viewBox="0 0 190.76 202.9">
  <g id="Layer_1-2" data-name="Layer 1">
    <g>
      <path d="M184.64,98.23c7.25-10.29,7.64-21.81,3.38-34.38-3.1-9.13-14.01-15.29-22.09-20.2-3.18-12.68-8.44-24.02-19.92-29.89-12.44-6.36-26.51-4.06-37.47,3.19-10.97-12.69-25.25-14.32-40.84-11.91-9.04-1.65-18.89-7.98-29.66-3.4-14.75,6.27-24.03,20.81-19.14,37.5-9.36,5.24-25.48,20.52-16,31.03,1.25,1.39,3.47,4.81,2.35,6.79-5.47,9.69,2.41,18.97,2.26,26.97-.23,12.06-1.92,21.85,5.4,32.94,5.89,8.91,16.25,10.59,25.48,16.36,6.83,4.27,9.54,19.37,21.37,20.34-.5,9.46-.17,15.4-.15,23.67,0,3.57,2.14,5.71,5.46,5.55,2.81-.14,5.25-2.14,5.29-5.7l.17-19.7c2.24-.56,4.02-.44,6.07.23l.34,20.39c.06,3.51,3.28,5.19,6.12,4.83,8.72-1.11,2.81-20.16,5.41-28.01,2.59-2.52,7.39-5.74,10.94-6.53,2.45,1.3,7.07,3.62,8.31,6.07,2.34,9.76-3.7,28.3,5.53,28.49,3.22.06,5.61-1.96,5.67-5.77l.29-19.69c1.15-1.17,4.66-.99,6.03.13l.41,19.61c.07,3.59,2.34,5.85,5.49,5.77,9.78-.27,3.3-19.87,5.92-29.12,10.07-4.35,16.33-12.08,19.95-22.35,22.23-3.29,35.81-25.88,27.96-46.65-.82-2.16-1.68-4.62-.32-6.56ZM178.75,82.36c-.78,6.39-5.34,12.53-11.73,17.45,9.3,7.78,10.9,18.55,5.6,28.19-5.25,9.55-15.05,12.64-26.01,8.88,1.74,12.68-5.33,23.96-16.59,26.97-11.48,3.08-22.94-1.68-28.01-13.07-.62-1.4-2.65-1.61-3.68-1.38-4.59,1-5.97,15.12-23.21,15.56-16.29.42-27.83-12.87-25.57-29.19-11.27,5.36-22.63,2.12-28.35-8.42-4.42-8.14-2.93-17.68,2.66-25.44-.55-2.43-3.05-2.81-4.21-5.09-2.59-5.1-3.4-13.89-.33-18.69,5.81.41,12.76-1.61,17.72-1.51,3.99,2.27,6.63,8.29,13,7.43-5.15-7.9-4.4-17.04,1.93-23.65.59-.61.65-1.84,1.38-2.05,2.14-.6,9.71,10.86,21.61,6.2,3.11-1.22,3.94-4.86,3.19-8.35-2.6-12.04-15.04-22.24-27.67-20.28-4.1.64-6.88,4.62-11.67,2.64-3.02-1.25-7.08-2.66-8.47-7.14-1.48-4.79.16-10.1,3.95-13.78,8.71-8.47,22.86-7.1,30.28,2.97,7.17-4.84,14.71-6.43,22.63-4.06,15.72,4.7,15.19,19.75,16.66,20.68,1.04.65,4.73,1.84,5.05.65,3.26-12.23,15.18-18.62,27.24-15.16,10.34,2.97,17.29,11.33,17.34,22.41.02,3.5-.55,6.92-.07,10.39,7.35-.36,13.8,1.18,18.76,6.12,5.38,5.35,7.59,12.6,6.59,20.7Z"/>
      <path d="M102.76,87.19c3.61-2.4,6-6.5,6-11.16,0-7.39-5.99-13.39-13.39-13.39s-13.39,5.99-13.39,13.39c0,4.66,2.39,8.76,6,11.16l-6.36,31.65c-.36,1.8,1.01,3.48,2.85,3.48h21.79c1.83,0,3.21-1.68,2.85-3.48l-6.36-31.65Z"/>
    </g>
  </g>
</svg>